# xmcd
#
# Track frame offsets:
#	182
#	15385
#	30522
#	48322
#	68897
#	84157
#	93517
#	105737
#	120550
#	132415
#	145515
#	167622
#
# Disc length: 2480 seconds
#
# Revision: 0
# Processed by: cddbd v1.4PL0 Copyright (c) Steve Scherf et al.
# Submitted via: audiograbber 1.81.01
#
DISCID=8e09ae0c
DTITLE=Fausto Leali - I Grandi Successi Originali cd2
DYEAR=1900
DGENRE=pop
TTITLE0=Malafemmena
TTITLE1=Tu che piangi (Cry)
TTITLE2=A costo di morire
TTITLE3=Jasmine
TTITLE4=Senza di tè
TTITLE5=Se qualcuno cercasse di tè (Funny how...)
TTITLE6=Devi pensare a mè (Run to my loving arms)
TTITLE7=E colpa sua
TTITLE8=Sono un uomo che non sà
TTITLE9=E non Lo scorderò
TTITLE10=Non ti arrendi mai
TTITLE11=Gente comune
EXTD=
EXTT0=
EXTT1=
EXTT2=
EXTT3=
EXTT4=
EXTT5=
EXTT6=
EXTT7=
EXTT8=
EXTT9=
EXTT10=
EXTT11=
PLAYORDER=
